<svg width="20" height="12" viewBox="0 0 20 12" fill="none" xmlns="http://www.w3.org/2000/svg">
<path d="M10 0.0389404C6.17879 0.0389404 2.71351 2.12956 0.15649 5.52529C-0.0521632 5.80349 -0.0521632 6.19216 0.15649 6.47036C2.71351 9.87018 6.17879 11.9608 10 11.9608C13.8212 11.9608 17.2865 9.87018 19.8435 6.47445C20.0522 6.19625 20.0522 5.80758 19.8435 5.52938C17.2865 2.12956 13.8212 0.0389404 10 0.0389404ZM10.2741 10.1975C7.73755 10.357 5.64284 8.26641 5.80239 5.72576C5.93331 3.63104 7.63118 1.93318 9.72589 1.80226C12.2625 1.6427 14.3572 3.73332 14.1976 6.27398C14.0626 8.3646 12.3647 10.0625 10.2741 10.1975ZM10.1473 8.25823C8.78081 8.34415 7.65163 7.21906 7.74164 5.85258C7.81119 4.7234 8.72763 3.81106 9.85681 3.73742C11.2233 3.6515 12.3525 4.77659 12.2625 6.14306C12.1888 7.27633 11.2724 8.18868 10.1473 8.25823Z" fill="#B3C0D2"/>
</svg>
